<svg width="202" height="92" viewBox="0 0 202 92" fill="none" xmlns="http://www.w3.org/2000/svg">
<g clip-path="url(#clip0_1477_205)">
<path d="M106.194 75.2898C104.942 75.2898 103.903 75.1147 103.077 74.7641C102.251 74.4012 101.625 73.9318 101.199 73.3559C100.774 72.78 100.548 72.167 100.523 71.5159C100.523 71.4159 100.561 71.3282 100.636 71.2531C100.724 71.1653 100.824 71.1216 100.936 71.1216H103.302C103.477 71.1216 103.609 71.1531 103.696 71.2155C103.796 71.2779 103.884 71.3596 103.959 71.4596C104.059 71.6473 104.197 71.829 104.372 72.0041C104.56 72.1792 104.798 72.3233 105.086 72.4359C105.386 72.5359 105.756 72.5861 106.194 72.5861C106.92 72.5861 107.464 72.4735 107.827 72.2482C108.203 72.0228 108.39 71.7163 108.39 71.3282C108.39 71.0526 108.29 70.8273 108.09 70.6522C107.89 70.4645 107.564 70.3016 107.114 70.1641C106.676 70.0139 106.087 69.8637 105.349 69.7135C104.397 69.513 103.584 69.2567 102.908 68.9437C102.245 68.6184 101.738 68.1987 101.387 67.6857C101.036 67.16 100.861 66.5089 100.861 65.7331C100.861 64.9694 101.074 64.2873 101.5 63.6865C101.938 63.0857 102.545 62.6163 103.321 62.2784C104.097 61.9404 105.017 61.7714 106.081 61.7714C106.945 61.7714 107.702 61.8841 108.353 62.1094C109.016 62.3347 109.573 62.6351 110.024 63.0106C110.474 63.3861 110.812 63.7865 111.038 64.2122C111.276 64.6253 111.401 65.0323 111.413 65.4326C111.413 65.5326 111.376 65.6265 111.301 65.7143C111.225 65.7894 111.132 65.8269 111.019 65.8269H108.541C108.403 65.8269 108.284 65.8021 108.184 65.7518C108.084 65.7016 107.996 65.6204 107.921 65.5077C107.846 65.2322 107.645 64.9947 107.32 64.7943C107.007 64.5816 106.594 64.4751 106.081 64.4751C105.53 64.4751 105.099 64.5751 104.785 64.7755C104.485 64.9633 104.335 65.2576 104.335 65.658C104.335 65.9081 104.416 66.1273 104.579 66.3151C104.754 66.5028 105.036 66.6657 105.424 66.8033C105.824 66.9408 106.369 67.0849 107.057 67.2351C108.197 67.4477 109.117 67.7172 109.817 68.0424C110.518 68.3555 111.032 68.7686 111.357 69.2816C111.682 69.7825 111.845 70.4143 111.845 71.178C111.845 72.029 111.601 72.7678 111.113 73.3935C110.637 74.007 109.974 74.4763 109.123 74.8016C108.272 75.1269 107.295 75.2898 106.194 75.2898ZM118.137 75.2898C117.085 75.2898 116.197 75.1208 115.471 74.7829C114.757 74.4449 114.207 73.9628 113.818 73.3371C113.443 72.6988 113.23 71.9416 113.18 71.0653C113.168 70.8151 113.161 70.5335 113.161 70.2204C113.161 69.8951 113.168 69.6135 113.18 69.3755C113.23 68.487 113.456 67.7294 113.856 67.1037C114.257 66.478 114.813 65.9959 115.527 65.658C116.253 65.32 117.123 65.151 118.137 65.151C119.163 65.151 120.033 65.32 120.747 65.658C121.473 65.9959 122.036 66.478 122.436 67.1037C122.837 67.7294 123.062 68.487 123.112 69.3755C123.125 69.6135 123.131 69.8951 123.131 70.2204C123.131 70.5335 123.125 70.8151 123.112 71.0653C123.062 71.9416 122.843 72.6988 122.455 73.3371C122.08 73.9628 121.529 74.4449 120.803 74.7829C120.089 75.1208 119.201 75.2898 118.137 75.2898ZM118.137 72.9992C118.7 72.9992 119.107 72.8302 119.357 72.4922C119.62 72.1543 119.77 71.6473 119.808 70.9714C119.82 70.7837 119.827 70.5335 119.827 70.2204C119.827 69.9073 119.82 69.6571 119.808 69.4694C119.77 68.8061 119.62 68.3053 119.357 67.9673C119.107 67.6167 118.7 67.4416 118.137 67.4416C117.586 67.4416 117.179 67.6167 116.916 67.9673C116.653 68.3053 116.51 68.8061 116.484 69.4694C116.472 69.6571 116.466 69.9073 116.466 70.2204C116.466 70.5335 116.472 70.7837 116.484 70.9714C116.51 71.6473 116.653 72.1543 116.916 72.4922C117.179 72.8302 117.586 72.9992 118.137 72.9992ZM128.564 75.2898C127.85 75.2898 127.212 75.1269 126.649 74.8016C126.098 74.4763 125.666 74.0004 125.353 73.3747C125.041 72.7363 124.884 71.9604 124.884 71.0465V65.8082C124.884 65.6706 124.928 65.558 125.015 65.4702C125.103 65.3824 125.216 65.3388 125.353 65.3388H127.7C127.838 65.3388 127.951 65.3824 128.038 65.4702C128.126 65.558 128.169 65.6706 128.169 65.8082V70.9339C128.169 72.1604 128.72 72.7739 129.822 72.7739C130.335 72.7739 130.742 72.6176 131.042 72.3045C131.355 71.9792 131.511 71.522 131.511 70.9339V65.8082C131.511 65.6706 131.556 65.558 131.643 65.4702C131.731 65.3824 131.843 65.3388 131.981 65.3388H134.328C134.466 65.3388 134.578 65.3824 134.666 65.4702C134.754 65.558 134.797 65.6706 134.797 65.8082V74.6326C134.797 74.7702 134.754 74.8828 134.666 74.9706C134.578 75.0584 134.466 75.102 134.328 75.102H132.15C132.025 75.102 131.912 75.0584 131.812 74.9706C131.725 74.8828 131.68 74.7702 131.68 74.6326V73.9192C131.355 74.3698 130.929 74.7138 130.404 74.9518C129.891 75.1771 129.277 75.2898 128.564 75.2898ZM137.475 75.102C137.338 75.102 137.225 75.0584 137.137 74.9706C137.05 74.8828 137.006 74.7702 137.006 74.6326V65.8082C137.006 65.6706 137.05 65.558 137.137 65.4702C137.225 65.3824 137.338 65.3388 137.475 65.3388H139.634C139.772 65.3388 139.885 65.3824 139.972 65.4702C140.06 65.558 140.104 65.6706 140.104 65.8082V66.5216C140.429 66.1334 140.855 65.8082 141.38 65.5453C141.906 65.2824 142.526 65.151 143.239 65.151C143.965 65.151 144.604 65.3139 145.154 65.6392C145.718 65.9645 146.156 66.4465 146.469 67.0849C146.794 67.7106 146.957 68.4804 146.957 69.3943V74.6326C146.957 74.7702 146.907 74.8828 146.806 74.9706C146.719 75.0584 146.613 75.102 146.487 75.102H144.122C143.997 75.102 143.884 75.0584 143.784 74.9706C143.696 74.8828 143.652 74.7702 143.652 74.6326V69.5069C143.652 68.9188 143.509 68.4682 143.22 68.1551C142.945 67.8298 142.532 67.6669 141.981 67.6669C141.468 67.6669 141.055 67.8298 140.742 68.1551C140.442 68.4682 140.291 68.9188 140.291 69.5069V74.6326C140.291 74.7702 140.242 74.8828 140.141 74.9706C140.054 75.0584 139.947 75.102 139.822 75.102H137.475Z" fill="white"/>
<path d="M98.1021 3.75513H0V85.898H98.1021V3.75513Z" fill="url(#paint0_linear_1477_205)"/>
<g filter="url(#filter0_d_1477_205)">
<path d="M24.0034 68.9136C20.3584 68.9136 17.2142 68.1926 14.5706 66.7507C11.927 65.3087 9.88419 63.2861 8.44224 60.6824C7.00028 58.1191 6.2793 55.0949 6.2793 51.6101C6.2793 50.0081 6.45954 48.3056 6.82003 46.5032C7.22056 44.7007 7.70121 43.1386 8.26199 41.8168C8.62248 40.9757 8.96293 40.4149 9.28338 40.1345C9.64387 39.8141 10.1245 39.734 10.7253 39.8942L14.6306 40.9156C15.4317 41.1559 15.8723 41.4363 15.9524 41.7567C16.0726 42.0772 16.0125 42.5178 15.7722 43.0785C15.2915 44.2 14.9311 45.3817 14.6907 46.6233C14.4504 47.825 14.3302 48.8863 14.3302 49.8077C14.3302 52.6916 15.2114 54.9949 16.9738 56.7171C18.7362 58.3993 21.2196 59.2405 24.424 59.2405C26.667 59.2405 28.5896 58.88 30.1918 58.159C31.7939 57.3981 33.0156 56.2763 33.8568 54.7944C34.7379 53.2722 35.1585 51.3299 35.1185 48.9665C35.1185 47.8048 34.9182 46.4031 34.5177 44.7608C34.1572 43.1186 33.6966 41.3161 33.1358 39.3535C32.8153 38.272 33.2359 37.5711 34.3975 37.2506L39.3242 35.9288C39.885 35.7686 40.3456 35.7686 40.7061 35.9288C41.0666 36.049 41.3469 36.4695 41.5472 37.1905C42.2282 39.4336 42.7889 41.6165 43.2295 43.7394C43.6701 45.8623 43.8904 48.0451 43.8904 50.2883C43.8904 52.9718 43.4097 55.4553 42.4484 57.7384C41.5272 60.0215 40.1854 61.9841 38.423 63.6264C36.7006 65.3087 34.6178 66.6103 32.1745 67.5317C29.7312 68.4532 27.0075 68.9136 24.0034 68.9136ZM25.1449 36.1091C24.9046 36.3494 24.5842 36.4695 24.1836 36.4695C23.7831 36.4295 23.4426 36.2893 23.1622 36.049L19.9779 32.8646C19.6975 32.5843 19.5573 32.2638 19.5573 31.9033C19.5573 31.5028 19.6975 31.1623 19.9779 30.882L23.1622 27.6976C23.4426 27.4173 23.7631 27.2771 24.1235 27.2771C24.5241 27.237 24.8445 27.3772 25.0848 27.6976L28.2091 30.882C28.9301 31.6029 28.9701 32.2839 28.3293 32.9247L25.1449 36.1091ZM52.5957 74.9218C51.2739 74.9218 50.2727 74.7617 49.5916 74.4411C48.9509 74.1609 48.6303 73.5197 48.6303 72.5185V67.5918C48.6303 66.7906 48.8307 66.2301 49.2311 65.9095C49.6719 65.589 50.3928 65.4289 51.394 65.4289H57.4623C60.2659 65.4289 62.5293 64.9684 64.2515 64.047C65.9737 63.166 67.1753 61.7639 67.8564 59.8413H62.8696C60.226 59.8413 57.9631 59.3808 56.0804 58.4594C54.1977 57.538 52.7557 56.2364 51.7545 54.5541C50.7533 52.8319 50.2525 50.8492 50.2525 48.606C50.2525 46.9238 50.513 45.3015 51.0335 43.7394C51.5945 42.1773 52.3952 40.7754 53.4368 39.5337C54.5183 38.292 55.8199 37.3107 57.3421 36.5897C58.9042 35.8287 60.6668 35.4482 62.6293 35.4482C66.5144 35.4482 69.5589 36.7499 71.7617 39.3535C74.0049 41.9169 75.2863 45.5819 75.6069 50.3484H79.4522C80.053 50.3484 80.3534 50.6488 80.3534 51.2496V58.6397C80.3534 59.8413 79.7526 60.4421 78.5509 60.4421H74.8259C73.6641 65.3289 71.5815 68.9535 68.5774 71.3169C65.6132 73.7202 61.6882 74.9218 56.8014 74.9218H52.5957ZM62.7495 50.9492L68.2169 50.8891C67.8165 48.4859 67.0354 46.7035 65.8737 45.5419C64.712 44.3402 63.3104 43.7394 61.668 43.7394C60.6668 43.7394 59.8256 43.9197 59.1446 44.2802C58.5038 44.6406 58.003 45.1213 57.6425 45.7221C57.3219 46.2829 57.1619 46.8637 57.1619 47.4645C57.1619 48.706 57.6627 49.6072 58.6639 50.1682C59.7055 50.6887 61.0672 50.9492 62.7495 50.9492ZM78.7978 60.4421C78.3974 60.4421 78.1167 60.3619 77.9567 60.2018C77.7563 60.0417 77.6563 59.8014 77.6563 59.4808V51.9105C77.6563 51.3496 77.8163 50.9492 78.1369 50.7089C78.4575 50.4686 78.8978 50.3484 79.4587 50.3484H96.8223C97.4231 50.3484 97.7235 50.6488 97.7235 51.2496V58.88C97.7235 59.4409 97.5635 59.8413 97.2429 60.0816C96.9223 60.322 96.482 60.4421 95.9211 60.4421H78.7978Z" fill="url(#paint1_linear_1477_205)"/>
<path d="M96.165 60.4421C95.7646 60.4421 95.4839 60.3618 95.3238 60.2018C95.1234 60.0417 95.0234 59.8014 95.0234 59.4808V51.9105C95.0234 51.3496 95.1835 50.9492 95.5041 50.7089C95.8247 50.4685 96.265 50.3484 96.8259 50.3484H114.189C114.79 50.3484 115.091 50.6488 115.091 51.2496V58.88C115.091 59.4409 114.931 59.8413 114.61 60.0816C114.289 60.3219 113.849 60.4421 113.288 60.4421H96.165ZM113.532 60.4421C113.132 60.4421 112.851 60.3618 112.691 60.2018C112.491 60.0417 112.391 59.8014 112.391 59.4808V51.9105C112.391 51.3496 112.551 50.9492 112.871 50.7089C113.192 50.4685 113.632 50.3484 114.193 50.3484H131.557C132.158 50.3484 132.458 50.6488 132.458 51.2496V58.88C132.458 59.4409 132.298 59.8413 131.977 60.0816C131.657 60.3219 131.217 60.4421 130.656 60.4421H113.532ZM130.9 60.4421C130.499 60.4421 130.219 60.3618 130.059 60.2018C129.858 60.0417 129.758 59.8014 129.758 59.4808V51.9105C129.758 51.3496 129.918 50.9492 130.239 50.7089C130.559 50.4685 131 50.3484 131.561 50.3484H148.924C149.525 50.3484 149.825 50.6488 149.825 51.2496V58.88C149.825 59.4409 149.665 59.8413 149.345 60.0816C149.024 60.3219 148.584 60.4421 148.023 60.4421H130.9ZM148.267 60.4421C147.907 60.4421 147.626 60.3618 147.426 60.2018C147.225 60.0816 147.125 59.7812 147.125 59.3005V51.9105C147.125 51.3496 147.286 50.9492 147.606 50.7089C147.927 50.4685 148.367 50.3484 148.928 50.3484C150.33 50.3484 151.391 50.2484 152.112 50.048C152.833 49.8076 153.314 49.3068 153.554 48.5459C153.795 47.7851 153.915 46.6434 153.915 45.1213V41.0958C153.915 39.9743 154.435 39.4135 155.477 39.4135H160.404C161.445 39.4135 161.966 39.9743 161.966 41.0958V44.3402C161.966 45.9023 162.106 47.1242 162.386 48.0052C162.666 48.8862 163.227 49.5072 164.069 49.8677C164.91 50.1883 166.151 50.3484 167.794 50.3484H183.174C185.938 50.3484 188.021 49.9879 189.423 49.2669C190.825 48.5459 191.526 47.4645 191.526 46.0225C191.526 44.8209 190.965 43.8395 189.844 43.0785C188.762 42.2774 187.34 41.8969 185.578 41.9369C183.815 41.977 182.053 42.4176 180.291 43.2587C178.568 44.0999 176.926 45.2414 175.364 46.6834C173.802 48.1254 172.38 49.7476 171.098 51.55L164.549 51.3097C166.271 47.5044 168.314 44.2601 170.677 41.5765C173.081 38.8928 175.664 36.8501 178.428 35.4481C181.192 34.0462 183.956 33.3453 186.719 33.3453C189.483 33.3453 191.746 33.926 193.509 35.0876C195.311 36.2092 196.653 37.6712 197.534 39.4736C198.415 41.2761 198.856 43.1987 198.856 45.2414C198.856 48.4459 198.115 51.1895 196.633 53.4726C195.191 55.7158 193.068 57.438 190.264 58.6396C187.46 59.8413 184.036 60.4421 179.99 60.4421H167.974C165.531 60.4421 163.387 60.0816 161.545 59.3606C159.743 58.5997 158.321 57.2779 157.279 55.3952C156.478 57.3178 155.236 58.6396 153.554 59.3606C151.912 60.0816 150.15 60.4421 148.267 60.4421Z" fill="white"/>
</g>
<g filter="url(#filter1_d_1477_205)">
<path d="M98.1014 2.11224C98.1014 0.945684 97.1558 0 95.9892 0C94.8226 0 93.877 0.945684 93.877 2.11224V86.1327C93.877 87.2992 94.8226 88.2449 95.9892 88.2449C97.1558 88.2449 98.1014 87.2992 98.1014 86.1327V2.11224Z" fill="white"/>
</g>
</g>
<defs>
<filter id="filter0_d_1477_205" x="2.2793" y="27.2704" width="200.576" height="55.6514" filterUnits="userSpaceOnUse" color-interpolation-filters="sRGB">
<feFlood flood-opacity="0" result="BackgroundImageFix"/>
<feColorMatrix in="SourceAlpha" type="matrix" values="0 0 0 0 0 0 0 0 0 0 0 0 0 0 0 0 0 0 127 0" result="hardAlpha"/>
<feOffset dy="4"/>
<feGaussianBlur stdDeviation="2"/>
<feComposite in2="hardAlpha" operator="out"/>
<feColorMatrix type="matrix" values="0 0 0 0 0 0 0 0 0 0 0 0 0 0 0 0 0 0 0.25 0"/>
<feBlend mode="normal" in2="BackgroundImageFix" result="effect1_dropShadow_1477_205"/>
<feBlend mode="normal" in="SourceGraphic" in2="effect1_dropShadow_1477_205" result="shape"/>
</filter>
<filter id="filter1_d_1477_205" x="89.877" y="0" width="12.2246" height="96.2449" filterUnits="userSpaceOnUse" color-interpolation-filters="sRGB">
<feFlood flood-opacity="0" result="BackgroundImageFix"/>
<feColorMatrix in="SourceAlpha" type="matrix" values="0 0 0 0 0 0 0 0 0 0 0 0 0 0 0 0 0 0 127 0" result="hardAlpha"/>
<feOffset dy="4"/>
<feGaussianBlur stdDeviation="2"/>
<feComposite in2="hardAlpha" operator="out"/>
<feColorMatrix type="matrix" values="0 0 0 0 0 0 0 0 0 0 0 0 0 0 0 0 0 0 0.25 0"/>
<feBlend mode="normal" in2="BackgroundImageFix" result="effect1_dropShadow_1477_205"/>
<feBlend mode="normal" in="SourceGraphic" in2="effect1_dropShadow_1477_205" result="shape"/>
</filter>
<linearGradient id="paint0_linear_1477_205" x1="98.1021" y1="44.8266" x2="0" y2="44.8266" gradientUnits="userSpaceOnUse">
<stop stop-color="#4A006F"/>
<stop offset="0.5" stop-color="#000B2F" stop-opacity="0.5"/>
<stop offset="1" stop-color="#000B2F" stop-opacity="0"/>
</linearGradient>
<linearGradient id="paint1_linear_1477_205" x1="201.368" y1="39.4286" x2="3.75587" y2="39.4286" gradientUnits="userSpaceOnUse">
<stop stop-color="#AA00FF"/>
<stop offset="1" stop-color="#00114D"/>
</linearGradient>
<clipPath id="clip0_1477_205">
<rect width="201.367" height="92" fill="white"/>
</clipPath>
</defs>
</svg>
