<svg width="1512" height="1179" viewBox="0 0 1512 1179" fill="none" xmlns="http://www.w3.org/2000/svg">
<g opacity="0.09">
<line y1="1159.37" x2="1511.58" y2="1159.37" stroke="white" stroke-width="1.2607"/>
<line y1="1077.9" x2="1511.58" y2="1077.9" stroke="white" stroke-width="1.2607"/>
<line y1="996.436" x2="1511.58" y2="996.436" stroke="white" stroke-width="1.2607"/>
<line y1="914.97" x2="1511.58" y2="914.97" stroke="white" stroke-width="1.2607"/>
<line y1="833.503" x2="1511.58" y2="833.503" stroke="white" stroke-width="1.2607"/>
<line y1="752.036" x2="1511.58" y2="752.036" stroke="white" stroke-width="1.2607"/>
<line y1="670.57" x2="1511.58" y2="670.57" stroke="white" stroke-width="1.2607"/>
<line y1="589.103" x2="1511.58" y2="589.103" stroke="white" stroke-width="1.2607"/>
<line y1="507.636" x2="1511.58" y2="507.636" stroke="white" stroke-width="1.2607"/>
<line y1="426.17" x2="1511.58" y2="426.17" stroke="white" stroke-width="1.2607"/>
<line y1="344.703" x2="1511.58" y2="344.703" stroke="white" stroke-width="1.2607"/>
<line y1="263.236" x2="1511.58" y2="263.236" stroke="white" stroke-width="1.2607"/>
<line y1="181.769" x2="1511.58" y2="181.769" stroke="white" stroke-width="1.2607"/>
<line y1="100.303" x2="1511.58" y2="100.303" stroke="white" stroke-width="1.2607"/>
<line y1="18.8361" x2="1511.58" y2="18.8361" stroke="white" stroke-width="1.2607"/>
<line x1="0.630349" y1="2.75534e-08" x2="0.630298" y2="1167.41" stroke="white" stroke-width="1.2607"/>
<line x1="80.2095" y1="2.75534e-08" x2="80.2094" y2="1167.41" stroke="white" stroke-width="1.2607"/>
<line x1="159.789" y1="2.75534e-08" x2="159.788" y2="1167.41" stroke="white" stroke-width="1.2607"/>
<line x1="239.368" y1="2.75534e-08" x2="239.368" y2="1167.41" stroke="white" stroke-width="1.2607"/>
<line x1="318.946" y1="2.75534e-08" x2="318.946" y2="1167.41" stroke="white" stroke-width="1.2607"/>
<line x1="398.525" y1="2.75534e-08" x2="398.525" y2="1167.41" stroke="white" stroke-width="1.2607"/>
<line x1="478.104" y1="2.75534e-08" x2="478.104" y2="1167.41" stroke="white" stroke-width="1.2607"/>
<line x1="557.683" y1="2.75534e-08" x2="557.683" y2="1167.41" stroke="white" stroke-width="1.2607"/>
<line x1="637.262" y1="2.75534e-08" x2="637.262" y2="1167.41" stroke="white" stroke-width="1.2607"/>
<line x1="716.841" y1="2.75534e-08" x2="716.841" y2="1167.41" stroke="white" stroke-width="1.2607"/>
<line x1="796.42" y1="2.75534e-08" x2="796.42" y2="1167.41" stroke="white" stroke-width="1.2607"/>
<line x1="875.999" y1="2.75534e-08" x2="875.998" y2="1167.41" stroke="white" stroke-width="1.2607"/>
<line x1="955.578" y1="2.75534e-08" x2="955.578" y2="1167.41" stroke="white" stroke-width="1.2607"/>
<line x1="1035.16" y1="2.75534e-08" x2="1035.16" y2="1167.41" stroke="white" stroke-width="1.2607"/>
<line x1="1114.74" y1="2.75534e-08" x2="1114.74" y2="1167.41" stroke="white" stroke-width="1.2607"/>
<line x1="1194.31" y1="2.75534e-08" x2="1194.31" y2="1167.41" stroke="white" stroke-width="1.2607"/>
<line x1="1273.89" y1="2.75534e-08" x2="1273.89" y2="1167.41" stroke="white" stroke-width="1.2607"/>
<line x1="1353.47" y1="2.75534e-08" x2="1353.47" y2="1167.41" stroke="white" stroke-width="1.2607"/>
<line x1="1433.05" y1="2.75534e-08" x2="1433.05" y2="1167.41" stroke="white" stroke-width="1.2607"/>
</g>
</svg>
