<svg width="429" height="196" viewBox="0 0 429 196" fill="none" xmlns="http://www.w3.org/2000/svg">
<path d="M226.24 160.4C223.573 160.4 221.36 160.027 219.6 159.28C217.84 158.507 216.507 157.507 215.6 156.28C214.693 155.053 214.213 153.747 214.16 152.36C214.16 152.147 214.24 151.96 214.4 151.8C214.587 151.613 214.8 151.52 215.04 151.52H220.08C220.453 151.52 220.733 151.587 220.92 151.72C221.133 151.853 221.32 152.027 221.48 152.24C221.693 152.64 221.987 153.027 222.36 153.4C222.76 153.773 223.267 154.08 223.88 154.32C224.52 154.533 225.307 154.64 226.24 154.64C227.787 154.64 228.947 154.4 229.72 153.92C230.52 153.44 230.92 152.787 230.92 151.96C230.92 151.373 230.707 150.893 230.28 150.52C229.853 150.12 229.16 149.773 228.2 149.48C227.267 149.16 226.013 148.84 224.44 148.52C222.413 148.093 220.68 147.547 219.24 146.88C217.827 146.187 216.747 145.293 216 144.2C215.253 143.08 214.88 141.693 214.88 140.04C214.88 138.413 215.333 136.96 216.24 135.68C217.173 134.4 218.467 133.4 220.12 132.68C221.773 131.96 223.733 131.6 226 131.6C227.84 131.6 229.453 131.84 230.84 132.32C232.253 132.8 233.44 133.44 234.4 134.24C235.36 135.04 236.08 135.893 236.56 136.8C237.067 137.68 237.333 138.547 237.36 139.4C237.36 139.613 237.28 139.813 237.12 140C236.96 140.16 236.76 140.24 236.52 140.24H231.24C230.947 140.24 230.693 140.187 230.48 140.08C230.267 139.973 230.08 139.8 229.92 139.56C229.76 138.973 229.333 138.467 228.64 138.04C227.973 137.587 227.093 137.36 226 137.36C224.827 137.36 223.907 137.573 223.24 138C222.6 138.4 222.28 139.027 222.28 139.88C222.28 140.413 222.453 140.88 222.8 141.28C223.173 141.68 223.773 142.027 224.6 142.32C225.453 142.613 226.613 142.92 228.08 143.24C230.507 143.693 232.467 144.267 233.96 144.96C235.453 145.627 236.547 146.507 237.24 147.6C237.933 148.667 238.28 150.013 238.28 151.64C238.28 153.453 237.76 155.027 236.72 156.36C235.707 157.667 234.293 158.667 232.48 159.36C230.667 160.053 228.587 160.4 226.24 160.4ZM251.684 160.4C249.444 160.4 247.551 160.04 246.004 159.32C244.484 158.6 243.311 157.573 242.484 156.24C241.684 154.88 241.231 153.267 241.124 151.4C241.098 150.867 241.084 150.267 241.084 149.6C241.084 148.907 241.098 148.307 241.124 147.8C241.231 145.907 241.711 144.293 242.564 142.96C243.418 141.627 244.604 140.6 246.124 139.88C247.671 139.16 249.524 138.8 251.684 138.8C253.871 138.8 255.724 139.16 257.244 139.88C258.791 140.6 259.991 141.627 260.844 142.96C261.698 144.293 262.178 145.907 262.284 147.8C262.311 148.307 262.324 148.907 262.324 149.6C262.324 150.267 262.311 150.867 262.284 151.4C262.178 153.267 261.711 154.88 260.884 156.24C260.084 157.573 258.911 158.6 257.364 159.32C255.844 160.04 253.951 160.4 251.684 160.4ZM251.684 155.52C252.884 155.52 253.751 155.16 254.284 154.44C254.844 153.72 255.164 152.64 255.244 151.2C255.271 150.8 255.284 150.267 255.284 149.6C255.284 148.933 255.271 148.4 255.244 148C255.164 146.587 254.844 145.52 254.284 144.8C253.751 144.053 252.884 143.68 251.684 143.68C250.511 143.68 249.644 144.053 249.084 144.8C248.524 145.52 248.218 146.587 248.164 148C248.138 148.4 248.124 148.933 248.124 149.6C248.124 150.267 248.138 150.8 248.164 151.2C248.218 152.64 248.524 153.72 249.084 154.44C249.644 155.16 250.511 155.52 251.684 155.52ZM273.898 160.4C272.378 160.4 271.018 160.053 269.818 159.36C268.645 158.667 267.725 157.653 267.058 156.32C266.392 154.96 266.058 153.307 266.058 151.36V140.2C266.058 139.907 266.152 139.667 266.338 139.48C266.525 139.293 266.765 139.2 267.058 139.2H272.058C272.352 139.2 272.592 139.293 272.778 139.48C272.965 139.667 273.058 139.907 273.058 140.2V151.12C273.058 153.733 274.232 155.04 276.578 155.04C277.672 155.04 278.538 154.707 279.178 154.04C279.845 153.347 280.178 152.373 280.178 151.12V140.2C280.178 139.907 280.272 139.667 280.458 139.48C280.645 139.293 280.885 139.2 281.178 139.2H286.178C286.472 139.2 286.712 139.293 286.898 139.48C287.085 139.667 287.178 139.907 287.178 140.2V159C287.178 159.293 287.085 159.533 286.898 159.72C286.712 159.907 286.472 160 286.178 160H281.538C281.272 160 281.032 159.907 280.818 159.72C280.632 159.533 280.538 159.293 280.538 159V157.48C279.845 158.44 278.938 159.173 277.818 159.68C276.725 160.16 275.418 160.4 273.898 160.4ZM292.883 160C292.59 160 292.35 159.907 292.163 159.72C291.977 159.533 291.883 159.293 291.883 159V140.2C291.883 139.907 291.977 139.667 292.163 139.48C292.35 139.293 292.59 139.2 292.883 139.2H297.483C297.777 139.2 298.017 139.293 298.203 139.48C298.39 139.667 298.483 139.907 298.483 140.2V141.72C299.177 140.893 300.083 140.2 301.203 139.64C302.323 139.08 303.643 138.8 305.163 138.8C306.71 138.8 308.07 139.147 309.243 139.84C310.443 140.533 311.377 141.56 312.043 142.92C312.737 144.253 313.083 145.893 313.083 147.84V159C313.083 159.293 312.977 159.533 312.763 159.72C312.577 159.907 312.35 160 312.083 160H307.043C306.777 160 306.537 159.907 306.323 159.72C306.137 159.533 306.043 159.293 306.043 159V148.08C306.043 146.827 305.737 145.867 305.123 145.2C304.537 144.507 303.657 144.16 302.483 144.16C301.39 144.16 300.51 144.507 299.843 145.2C299.203 145.867 298.883 146.827 298.883 148.08V159C298.883 159.293 298.777 159.533 298.563 159.72C298.377 159.907 298.15 160 297.883 160H292.883Z" fill="white"/>
<path d="M209 8H0V183H209V8Z" fill="url(#paint0_linear_1417_14)"/>
<g filter="url(#filter0_d_1417_14)">
<path d="M51.136 146.816C43.3707 146.816 36.672 145.28 31.04 142.208C25.408 139.136 21.056 134.827 17.984 129.28C14.912 123.819 13.376 117.376 13.376 109.952C13.376 106.539 13.76 102.912 14.528 99.072C15.3813 95.232 16.4053 91.904 17.6 89.088C18.368 87.296 19.0933 86.1013 19.776 85.504C20.544 84.8213 21.568 84.6507 22.848 84.992L31.168 87.168C32.8747 87.68 33.8133 88.2773 33.984 88.96C34.24 89.6427 34.112 90.5813 33.6 91.776C32.576 94.1653 31.808 96.6827 31.296 99.328C30.784 101.888 30.528 104.149 30.528 106.112C30.528 112.256 32.4053 117.163 36.16 120.832C39.9147 124.416 45.2053 126.208 52.032 126.208C56.8107 126.208 60.9067 125.44 64.32 123.904C67.7333 122.283 70.336 119.893 72.128 116.736C74.0053 113.493 74.9013 109.355 74.816 104.32C74.816 101.845 74.3893 98.8587 73.536 95.36C72.768 91.8613 71.7867 88.0213 70.592 83.84C69.9093 81.536 70.8053 80.0427 73.28 79.36L83.776 76.544C84.9707 76.2027 85.952 76.2027 86.72 76.544C87.488 76.8 88.0853 77.696 88.512 79.232C89.9627 84.0107 91.1573 88.6613 92.096 93.184C93.0347 97.7067 93.504 102.357 93.504 107.136C93.504 112.853 92.48 118.144 90.432 123.008C88.4693 127.872 85.6107 132.053 81.856 135.552C78.1867 139.136 73.7493 141.909 68.544 143.872C63.3387 145.835 57.536 146.816 51.136 146.816ZM53.568 76.928C53.056 77.44 52.3733 77.696 51.52 77.696C50.6667 77.6107 49.9413 77.312 49.344 76.8L42.56 70.016C41.9627 69.4187 41.664 68.736 41.664 67.968C41.664 67.1147 41.9627 66.3893 42.56 65.792L49.344 59.008C49.9413 58.4107 50.624 58.112 51.392 58.112C52.2453 58.0267 52.928 58.3253 53.44 59.008L60.096 65.792C61.632 67.328 61.7173 68.7787 60.352 70.144L53.568 76.928ZM112.05 159.616C109.234 159.616 107.101 159.275 105.65 158.592C104.285 157.995 103.602 156.629 103.602 154.496V144C103.602 142.293 104.029 141.099 104.882 140.416C105.821 139.733 107.357 139.392 109.49 139.392H122.418C128.391 139.392 133.213 138.411 136.882 136.448C140.551 134.571 143.111 131.584 144.562 127.488H133.938C128.306 127.488 123.485 126.507 119.474 124.544C115.463 122.581 112.391 119.808 110.258 116.224C108.125 112.555 107.058 108.331 107.058 103.552C107.058 99.968 107.613 96.512 108.722 93.184C109.917 89.856 111.623 86.8693 113.842 84.224C116.146 81.5787 118.919 79.488 122.162 77.952C125.49 76.3307 129.245 75.52 133.426 75.52C141.703 75.52 148.189 78.2933 152.882 83.84C157.661 89.3013 160.391 97.1093 161.074 107.264H169.266C170.546 107.264 171.186 107.904 171.186 109.184V124.928C171.186 127.488 169.906 128.768 167.346 128.768H159.41C156.935 139.179 152.498 146.901 146.098 151.936C139.783 157.056 131.421 159.616 121.01 159.616H112.05ZM133.682 108.544L145.33 108.416C144.477 103.296 142.813 99.4987 140.338 97.024C137.863 94.464 134.877 93.184 131.378 93.184C129.245 93.184 127.453 93.568 126.002 94.336C124.637 95.104 123.57 96.128 122.802 97.408C122.119 98.6027 121.778 99.84 121.778 101.12C121.778 103.765 122.845 105.685 124.978 106.88C127.197 107.989 130.098 108.544 133.682 108.544ZM167.872 128.768C167.019 128.768 166.421 128.597 166.08 128.256C165.653 127.915 165.44 127.403 165.44 126.72V110.592C165.44 109.397 165.781 108.544 166.464 108.032C167.147 107.52 168.085 107.264 169.28 107.264H206.272C207.552 107.264 208.192 107.904 208.192 109.184V125.44C208.192 126.635 207.851 127.488 207.168 128C206.485 128.512 205.547 128.768 204.352 128.768H167.872Z" fill="url(#paint1_linear_1417_14)"/>
<path d="M204.872 128.768C204.019 128.768 203.421 128.597 203.08 128.256C202.653 127.915 202.44 127.403 202.44 126.72V110.592C202.44 109.397 202.781 108.544 203.464 108.032C204.147 107.52 205.085 107.264 206.28 107.264H243.272C244.552 107.264 245.192 107.904 245.192 109.184V125.44C245.192 126.635 244.851 127.488 244.168 128C243.485 128.512 242.547 128.768 241.352 128.768H204.872ZM241.872 128.768C241.019 128.768 240.421 128.597 240.08 128.256C239.653 127.915 239.44 127.403 239.44 126.72V110.592C239.44 109.397 239.781 108.544 240.464 108.032C241.147 107.52 242.085 107.264 243.28 107.264H280.272C281.552 107.264 282.192 107.904 282.192 109.184V125.44C282.192 126.635 281.851 127.488 281.168 128C280.485 128.512 279.547 128.768 278.352 128.768H241.872ZM278.872 128.768C278.019 128.768 277.421 128.597 277.08 128.256C276.653 127.915 276.44 127.403 276.44 126.72V110.592C276.44 109.397 276.781 108.544 277.464 108.032C278.147 107.52 279.085 107.264 280.28 107.264H317.272C318.552 107.264 319.192 107.904 319.192 109.184V125.44C319.192 126.635 318.851 127.488 318.168 128C317.485 128.512 316.547 128.768 315.352 128.768H278.872ZM315.872 128.768C315.104 128.768 314.507 128.597 314.08 128.256C313.653 128 313.44 127.36 313.44 126.336V110.592C313.44 109.397 313.781 108.544 314.464 108.032C315.147 107.52 316.085 107.264 317.28 107.264C320.267 107.264 322.528 107.051 324.064 106.624C325.6 106.112 326.624 105.045 327.136 103.424C327.648 101.803 327.904 99.3707 327.904 96.128V87.552C327.904 85.1627 329.013 83.968 331.232 83.968H341.728C343.947 83.968 345.056 85.1627 345.056 87.552V94.464C345.056 97.792 345.355 100.395 345.952 102.272C346.549 104.149 347.744 105.472 349.536 106.24C351.328 106.923 353.973 107.264 357.472 107.264H390.24C396.128 107.264 400.565 106.496 403.552 104.96C406.539 103.424 408.032 101.12 408.032 98.048C408.032 95.488 406.837 93.3973 404.448 91.776C402.144 90.0693 399.115 89.2587 395.36 89.344C391.605 89.4293 387.851 90.368 384.096 92.16C380.427 93.952 376.928 96.384 373.6 99.456C370.272 102.528 367.243 105.984 364.512 109.824L350.56 109.312C354.229 101.205 358.581 94.2933 363.616 88.576C368.736 82.8587 374.24 78.5067 380.128 75.52C386.016 72.5333 391.904 71.04 397.792 71.04C403.68 71.04 408.501 72.2773 412.256 74.752C416.096 77.1413 418.955 80.256 420.832 84.096C422.709 87.936 423.648 92.032 423.648 96.384C423.648 103.211 422.069 109.056 418.912 113.92C415.84 118.699 411.317 122.368 405.344 124.928C399.371 127.488 392.075 128.768 383.456 128.768H357.856C352.651 128.768 348.085 128 344.16 126.464C340.32 124.843 337.291 122.027 335.072 118.016C333.365 122.112 330.72 124.928 327.136 126.464C323.637 128 319.883 128.768 315.872 128.768Z" fill="white"/>
</g>
<g filter="url(#filter1_d_1417_14)">
<path d="M209 4.5C209 2.01472 206.985 0 204.5 0C202.015 0 200 2.01472 200 4.5V183.5C200 185.985 202.015 188 204.5 188C206.985 188 209 185.985 209 183.5V4.5Z" fill="white"/>
</g>
<defs>
<filter id="filter0_d_1417_14" x="9.37598" y="58.0978" width="418.272" height="109.518" filterUnits="userSpaceOnUse" color-interpolation-filters="sRGB">
<feFlood flood-opacity="0" result="BackgroundImageFix"/>
<feColorMatrix in="SourceAlpha" type="matrix" values="0 0 0 0 0 0 0 0 0 0 0 0 0 0 0 0 0 0 127 0" result="hardAlpha"/>
<feOffset dy="4"/>
<feGaussianBlur stdDeviation="2"/>
<feComposite in2="hardAlpha" operator="out"/>
<feColorMatrix type="matrix" values="0 0 0 0 0 0 0 0 0 0 0 0 0 0 0 0 0 0 0.25 0"/>
<feBlend mode="normal" in2="BackgroundImageFix" result="effect1_dropShadow_1417_14"/>
<feBlend mode="normal" in="SourceGraphic" in2="effect1_dropShadow_1417_14" result="shape"/>
</filter>
<filter id="filter1_d_1417_14" x="196" y="0" width="17" height="196" filterUnits="userSpaceOnUse" color-interpolation-filters="sRGB">
<feFlood flood-opacity="0" result="BackgroundImageFix"/>
<feColorMatrix in="SourceAlpha" type="matrix" values="0 0 0 0 0 0 0 0 0 0 0 0 0 0 0 0 0 0 127 0" result="hardAlpha"/>
<feOffset dy="4"/>
<feGaussianBlur stdDeviation="2"/>
<feComposite in2="hardAlpha" operator="out"/>
<feColorMatrix type="matrix" values="0 0 0 0 0 0 0 0 0 0 0 0 0 0 0 0 0 0 0.25 0"/>
<feBlend mode="normal" in2="BackgroundImageFix" result="effect1_dropShadow_1417_14"/>
<feBlend mode="normal" in="SourceGraphic" in2="effect1_dropShadow_1417_14" result="shape"/>
</filter>
<linearGradient id="paint0_linear_1417_14" x1="209" y1="95.5" x2="0" y2="95.5" gradientUnits="userSpaceOnUse">
<stop stop-color="#4A006F"/>
<stop offset="0.5" stop-color="#000B2F" stop-opacity="0.5"/>
<stop offset="1" stop-color="#000B2F" stop-opacity="0"/>
</linearGradient>
<linearGradient id="paint1_linear_1417_14" x1="429" y1="84" x2="7.99998" y2="84" gradientUnits="userSpaceOnUse">
<stop stop-color="#AA00FF"/>
<stop offset="1" stop-color="#00114D"/>
</linearGradient>
</defs>
</svg>
